<?xml version="1.0" encoding="utf-8"?>
<!-- Generator: Adobe Illustrator 19.1.0, SVG Export Plug-In . SVG Version: 6.00 Build 0)  -->
<svg version="1.1" id="Layer_1" xmlns="http://www.w3.org/2000/svg" xmlns:xlink="http://www.w3.org/1999/xlink" x="0px" y="0px"
	 viewBox="0 0 792 951.3" style="enable-background:new 0 0 792 951.3;" xml:space="preserve">
<path d="M405.1,68.2c-0.2-2.1-0.4-4.2-0.6-6.2C403,38,382.4,19.7,359.6,16.5c-15-2.1-29.2,0.5-41.6,9.1c-7.5,5.2-12.4,13.1-15.6,22
	c-8.5,23.1,8.3,48.6,31.7,54.9c12.8,3.5,25.8,4.7,39,5.3c27.4,1.2,53.7,7.1,76.2,23.7c21.2,15.7,36.9,35.6,41.5,62.5
	c0.8,4.8,1.6,9.6,1.4,14.5c-2.5-7.5-4.4-15.2-7.6-22.4c-7.8-17.3-19-32.1-35.6-42.1c-1.8-1.1-4.3-1.1-6.5-1.6
	c-0.5,2.3-1.3,4.7-1.5,7c-0.2,4.2-0.1,8.3-0.1,12.5c-0.4,0.1-0.8,0.1-1.2,0.2c-4.4-6.4-8.8-12.7-13.2-19.1
	c-10-14.3-23.2-23.1-41.1-23.9c-11.2-0.4-28.9,12.1-33.3,27c-5.7,19.4-3.1,38,3.8,55.8c4.1,10.6,11.8,19.9,17.9,29.8
	c0.5,0.8,1,1.5,1.1,2.7c-6.1-4.3-12.5-8.3-18.3-13c-11.8-9.6-25.6-11.6-40-11.2c-24.1,0.7-38,15.3-46.7,36.2
	c-2.6,6.2-4.3,12.8-7,20.8c-4.4-9.1-8.4-17.2-12.8-26.4c-15.6,31.3-39.2,49.6-74.6,47.2c-13.7-0.9-26.1-6.8-37.8-15.5
	c1.2-0.5,1.6-0.9,2-0.8c7.9,1.8,15.7,4.6,23.7,5.3c17.6,1.5,32.4-5.2,43.3-19.1c4.7-5.9,8.6-12.7,11.6-19.7
	c5-11.4,5.3-23.2,2.1-35.6c-4.9-19-25.3-35.8-43.3-36.2c-20.8-0.4-37.4,7.8-49.8,24.5c-3,4.1-5.5,8.6-8.2,13
	c-0.4-0.1-0.8-0.3-1.2-0.4c1.7-5,3.1-10.3,5.3-15.1c7.7-16.7,19.6-29.7,35.9-38.3c12-6.3,25.2-7.4,38.5-6.6c16,1,30.5,5.8,41.5,18.2
	c6.3,7.1,11.6,15,14.2,24.4c0.4,1.5,1.6,2.7,2.5,4.1c1.4-1.1,3.1-1.9,4-3.2c11.3-17.3,25.6-31.8,40.9-45.5c2.7-2.4,6.1-4,9-6.2
	c1.1-0.8,2.1-2,2.4-3.3c0.1-0.5-1.6-1.8-2.7-2.2c-13.2-4.2-23-12.7-31.2-23.7c-13.1-17.6-14.2-37.2-7.3-56.6
	c8.5-24.1,25.8-40.1,51.2-46.9C335-0.7,347.5-1,359.8,2.5c20.5,5.7,37.1,16.8,44.8,37.8C407.8,49.1,409,58.6,405.1,68.2z"/>
<path d="M199.4,335.5c6,0.4,10.8,0.5,15.6,1c19.6,2.2,39.2,4.3,58.7,6.7c14.2,1.7,28.4,4.8,42.6,5.2c11.1,0.3,15.8,5.4,20.1,14.5
	c7.1,14.8,23.9,27.4,42.2,24.2c7.6-1.3,15.1-4.2,22.1-7.6c15.2-7.2,30-15.2,45-22.8c2.2-1.1,4.5-2.5,6.9-2.8c3.3-0.5,7.4-1.3,10,0.2
	c9.9,5.4,19.9,11,28.9,17.7c15.1,11.2,29.9,22.9,44.2,35.2c11.9,10.2,22.9,21.4,34.3,32.1c1.3,1.2,2.2,2.8,3.3,4.2
	c-0.3,0.4-0.6,0.7-0.9,1.1c-1.4-0.9-2.8-1.7-4-2.7c-21.2-19-46.5-26.4-74.3-25.5c-32.3,1.1-61.4,12.2-88.4,29.9
	c-9.4,6.1-9.3,8.5-15.8-4.1c-8.9-17.2-20.7-32.3-36.8-43.5c-12.1-8.5-25.8-13.8-40.4-15c-34.1-2.9-68.2-5-102.3-7.4
	c-1.2-0.1-2.3-0.2-3.5-0.2c-3.5-0.2-4.8-1.6-3.4-5.2c3.1-7.9,2.9-16.1,0.5-24.1C203.3,343.2,201.5,340.2,199.4,335.5z"/>
<path d="M324.1,817.8c-6-4.3-12.4-8.2-19.1-11.6c-6.7-3.3-13.5-6.5-20.6-10.3c19.1-4,29.5-13.7,23.9-34.8c5.2,0.2,7.3,4.3,7.9,7.5
	c1.1,5.6,1.4,11.6,0.5,17.2c-1.2,8-1.7,7.9,4.9,12.8c9.9,7.4,20,14.5,29.5,22.3c22.4,18.3,30.6,41.6,21.8,70.5
	c-4.6,15.2-14.3,26.8-24.9,38.1c-9.6,10.2-21.8,15.7-34.4,20.6c-1.8,0.7-3.9,0.9-5.8,1c-25.9,0.1-51.8,0.6-77.7-0.3
	c-7.7-0.3-15.6-4.4-22.8-7.9c-11.7-5.5-22.2-13.5-30.1-23.6c-14.2-18.2-21.5-38.7-15.1-62.2c6.3-22.8,19.3-41.1,38-55.3
	c3.1-2.3,6.8-3.9,10.9-4.9c-0.7,0.7-1.2,1.5-2,2.2c-15.4,14.2-27.6,30.4-32.5,51.1c-3.8,16.3,0.3,31.2,9.6,44.6
	c13.4,19.3,33.5,26.2,55.8,28.9c19.2,2.3,37.5-0.9,55.6-6.9c19-6.2,35.8-25.2,33.7-45.6c-1.6-16-14.9-34.4-31.1-39.6
	c-31.4-10.1-59.8-3.9-86.5,14c-1.3,0.9-2.8,1.4-4.7,2.4c3.1-10.2,30.2-25.4,52.6-31.5c20.9-5.7,41.2-3.3,61.4,3.6
	C323.4,819.3,323.7,818.5,324.1,817.8z"/>
<path d="M540.6,767.7c4.8-2.2,9.5-4.9,14.5-6.4c14.3-4.4,28.9-7.3,43.9-6.6c15.5,0.8,30.5,3.7,44.9,10.5c14.2,6.7,21.9,18,27.2,31.5
	c8.7,22.1,3.8,41.6-11.1,59.9c-19.6,24.1-44.4,39.7-73.9,48.8c-25.4,7.8-51.1,12.6-77.7,12.5c-20.5-0.1-41-1.1-60.5-8.6
	c-19.6-7.5-34.5-20.1-43-39.4c-3.5-8-3.8-16.8-1.8-25.2c3.1-13,9-24.7,18.9-34c1.3-1.3,2.9-2.2,4.9-2.7c-2.6,4.7-5.2,9.5-7.9,14.2
	c-9.7,16.6-7.3,42.4,12.1,55.5c12,8.1,24.7,12.4,39.2,13.2c16,0.9,32.1,3,47.9-0.2c13.6-2.8,27.1-6.6,40.4-11
	c15.1-5,29-12.4,42.5-20.8c13-8.1,21.1-19.6,24.7-34.3c3.6-14.9-6.6-37.8-19.7-46.9c-11.7-8.2-24.7-10.1-38.4-9.4
	c-7.2,0.4-14.3,0.9-21.5,1.3c-1.7,0.1-3.4,0-5.2,0C540.9,768.9,540.8,768.3,540.6,767.7z"/>
<path d="M393.4,637c-0.9,2-1.1,2.8-1.6,3.4c-12.9,16.8-25.6,33.6-38.6,50.2c-16.8,21.5-34.3,42.4-50.7,64.2
	c-10.4,13.9-39,10.1-45.4-5.6c10.6-13.8,21.5-27.7,32.1-41.7c14.1-18.6,28.1-37.2,41.9-55.9c3.7-5.1,8-7.6,14.4-8.3
	c11.6-1.3,23-3.9,34.5-5.6C384.1,637.1,388.2,637.3,393.4,637z"/>
<path d="M472.7,346c3.3-1.5,5.6-2.8,8.1-3.5c24.8-6.7,49.5-13.3,74.4-19.7c11.4-3,23-5.3,34.5-8.1c9.6-2.3,17.2,1.9,20,11.5
	c2.4,7.9-2.2,16.8-10.6,19.4c-11.1,3.5-22.4,6.6-33.7,9.5c-18.2,4.7-36.5,8.9-54.8,13.6c-3.6,0.9-6.4,0.5-9.3-1.7
	c-8.4-6.2-17-12.2-25.5-18.3C475,348.1,474.4,347.4,472.7,346z"/>
<path d="M543.1,684c-1.9,5.1-4,10.6-6.1,16c-6.7,17.2-13,34.6-20.2,51.6c-3,7.1-3.9,15.3-10.2,20.8c-10.1,8.9-28.3,6.5-35.2-4.1
	c-2.5-3.9-0.9-7,0.4-10.3c7-17.8,14-35.6,21.1-53.4c2.4-6,4.7-12.1,7.5-17.9c0.7-1.4,3.4-2.5,5.2-2.5
	C517.7,683.9,529.8,684,543.1,684z"/>
<path d="M111.5,655.2c0,3.9,0,7.1,0,10.4c0,8.9,7.6,18,16.3,19.6c26.9,4.9,51.3-20.3,43.4-46.7c-5.9-19.8-21-31.5-44-28.8
	c-17.7,2.1-32.1,10.9-42.2,25.8c-8.8,12.9-12,27.6-7.7,42.5c3.9,13.3,12.5,23.6,26.1,29.3c25.5,10.6,49,7.1,71.8-7.7
	c21.5-14,38.3-32.7,55-51.8c12.7-14.5,26.1-28.6,40.6-41.3c22-19.3,47.5-33,75.8-41c2.9-0.8,5.9-1.3,9.2-1.1
	c-5,1.8-9.9,3.7-14.9,5.5c-28.6,10.8-53.1,27.7-73.6,50.4c-15.5,17.2-30.1,35.2-45.5,52.4c-8.9,9.9-18,19.9-28.3,28.3
	c-17.7,14.4-37.9,23.6-61.5,23c-10.4-0.2-19.9-3.4-29-8.4c-9.4-5.1-17.4-11.9-23.1-20.8c-5.3-8.2-7.9-17.2-8-27.3
	c-0.2-14.8,5-27.6,14.2-38.5c16.1-18.9,38.4-29.3,64.4-18.2c17.4,7.4,25.2,18.7,23.9,39.6c-1,14.5-8.2,25.5-19.1,33.8
	c-11.1,8.5-29.8,11.8-42.3-4.5C108.2,673.4,107,661.2,111.5,655.2z"/>
<path d="M393.4,666c7.6-1.3,15.2-2.6,22.8-4c8.7-1.6,17.4-3.4,24.4-9.3c7.2-6.1,6.2-15.1-1.6-20.4c-6.6-4.5-13.9-6.3-21.6-7
	c-19-1.8-37.6,1.7-56.3,4.3c-7.9,1.1-15.6,3.5-23.4,5.1c-1.7,0.3-3.5-0.1-5.2-0.1c0.6-1.8,0.8-3.8,1.8-5.2
	c7.3-10.1,15.3-19.8,22.2-30.2c10.7-16.1,16.1-34,15.9-53.3c-0.1-11.1-1.1-22.3-1.9-33.4c-1.1-14.1,3.5-26.6,10.8-38.4
	c2.5-4,5.3-7.7,9-11c-0.1,0.6,0.1,1.4-0.2,1.8c-13,18.2-15.6,38.5-10.7,59.7c7.1,30.3,0.7,57.9-15.4,83.8c-1,1.7-1.8,3.5-3.3,6.4
	c2.9,0,4.9,0.1,6.9,0c15.7-0.7,31.3-2,47-1.9c10.1,0,20.3,2,28.7,8.6c2.6,2,5.2,4.3,6.9,7.1c2.4,4,4.3,3.7,6.5,0.3
	c4.4-6.8,8.6-13.8,13.1-20.6c3.5-5.3,7.3-10.5,10.9-15.7c0.4,0.3,0.9,0.6,1.3,0.9c-1.1,1.9-2.4,3.8-3.3,5.8
	c-4.3,9.8-8.8,19.5-12.7,29.4c-9,23-24.9,36.5-50.1,37.9c-7.6,0.4-15.1,1-22.7,1.6C393.5,667.1,393.4,666.6,393.4,666z"/>
<path d="M77.7,423.2c-2.1-2.2-4.3-4.3-6.1-6.7c-10.4-14.2-16.4-30.3-16.7-47.8c-0.3-14.9,2.1-29.7,9.5-43c5.9-10.7,6-21.8,4.6-33.5
	c-1.6-13.8-1.7-27.6,5.4-40.4c7-12.5,16.9-21,31.6-22.5c7.2-0.7,13.2,2,17.9,7.9c4.4,5.4,4.2,10.9,1.5,16.8
	c-2.7,5.7-5.5,11.4-7.7,17.3c-1.4,3.6-1.9,7.6-3,12.4c-3.3-5.2-5.4-9.9-5.4-15.6c0-5.3,0.1-10.7-1.1-15.8c-1.7-6.9-9-8.7-14.5-3.9
	c-7.8,6.8-10.2,16.2-10.9,26c-0.7,9.5-0.6,19-1.2,28.5c-0.7,10.8-4.2,20.8-9.1,30.4c-9.8,19.3-12.9,39.8-7.4,60.7
	c2.4,9,7.9,17.1,12,25.6c0.5,1,1.1,1.9,1.6,2.8C78.3,422.6,78,422.9,77.7,423.2z"/>
<path d="M485.8,616.4c18.4-3.7,35.7-7.3,53.8-11c-5.9,7.9-11.5,14.5-15.9,21.8c-4.1,6.8-7.3,14.2-10.1,21.7
	c-2.4,6.2,1.4,10.8,8.7,11.2c12.1,0.7,24.1,0.2,35.7-3.7c6.2-2.1,12.8-4.2,17.9-8c8.2-6,10-15.4,9.1-25.2
	c-0.7-7.8-1.8-15.5-2.8-23.2c-0.1-0.6,0-1.3,0.9-2.3c0.8,1.2,2,2.4,2.2,3.8c2.8,13.2,6.1,26.3,8,39.6c1.6,10.6-2.9,16.2-12.9,20.5
	c-18.5,7.8-37.8,11.8-57.8,12.4c-6.3,0.2-12.7-0.7-18.9-1.8c-8.2-1.4-12-7.8-8.4-15.3c5.1-10.8,11-21.3,16.6-31.9
	c2.2-4.1,1.7-4.7-2.8-5.1c-6-0.5-11.9-1.2-17.9-1.9C489.7,617.8,488.1,617.1,485.8,616.4z"/>
<path d="M647.2,362c1.7,1.1,3.2,2.6,5,3.2c9.8,3.1,19.5,7.9,29.5,8.4c12.2,0.6,20.7,5.3,29.2,13.4c10,9.6,21.5,17.8,32.6,26.2
	c2.8,2.2,6.5,3.5,10,4.5c2.3,0.6,6.3,0.7,7.1-0.5c1.2-2,1.3-5.7,0.3-7.9c-2.1-4.7-4.8-9.3-8.2-13.1c-7.2-8.3-14.9-16.1-22.4-24.1
	c-1.1-1.2-1.9-2.8-2.8-4.3c0.3-0.4,0.6-0.8,0.9-1.2c2,1,4.2,1.6,5.8,3c10.4,9.3,20.7,18.8,31.1,28.2c1.5,1.3,3.4,2.1,5.2,3.1
	c0.5-2,1.6-4,1.5-6c-0.4-11.7-5.5-21.8-11.8-31.4c-6-9.1-12.7-17.3-22.6-22.6c0.2-0.4,0.5-0.7,0.7-1.1c1,0.2,2.1,0.1,2.9,0.6
	c22.7,15.2,38.7,34.5,39.6,63.3c0,0.7,0.2,1.4-0.1,2c-2.4,6.6-4.1,13.6-7.4,19.7c-3.4,6.2-10.1,6.2-16.5,5.2c-12.7-2-22-9.9-31.2-18
	c-7.9-6.9-15.7-14-23.7-20.7c-7.4-6.2-17-7.2-25.7-10.2c-10.8-3.7-20.3-9.7-29-17.1c-0.5-0.4-0.5-1.3-0.8-2
	C646.7,362.5,647,362.3,647.2,362z"/>
<path d="M445.8,250.8c5.1-4.4,10-9,15.3-13.2c3.7-3,4.9-4.4,2-10c-7.2-13.9-9.6-29.1-1.8-44.1c3.1-6.1,7.1-6.8,11.9-1.9
	c7.1,7.2,8.9,16.4,7.7,26.4c-0.8-3.9-1.1-7.9-2.4-11.7c-1.1-3.2-2.9-6.4-5-9.1c-2.6-3.4-7.8-2.6-9.2,1.7
	c-3.7,11.2-4.4,22.7,0.9,33.6c1.1,2.2,3.8,3.8,6.1,5.3c0.3,0.2,2.8-1.4,2.8-2.1c-0.1-3-0.7-6-1.4-8.9c-0.2-1-1.3-1.8-2.5-3.3
	c5.1,0.6,8.6,3.9,9.7,9.3c0.9,4.5,2.8,5.1,7,4.2c15.9-3.3,15.8-3.1,18.2-19c0.5-3.4,1.9-6.7,3.1-9.9c0.5-1.4,1.8-2.4,3.6-3.1
	c-0.4,2.9-1,5.8-1.1,8.7c-0.2,3.6-0.7,7.4,0.3,10.7c0.9,3.2,2.9,7.4,5.5,8.5c4.3,1.8,9.3,0.4,12.6-3.6c6.7-8.2,9.2-17.7,7.6-28.1
	c-0.4-2.3-2.5-5.9-4-6.1c-3.3-0.3-6.9,1.1-10.2,2.2c-1.2,0.4-1.9,2.2-2.9,3.5c0.4-6.9,5.4-12.1,11.5-12.4
	c5.7-0.3,13.1,5.6,14.2,11.3c4.5,22.4-3.8,39.8-21.1,53.4c-7.3,5.7-13.7,7.2-22.8-2.8c-2.3-2.5-7.9-3.2-11.9-2.9
	c-14.9,1-28.8,5.2-41.1,14c-0.4,0.3-0.9,0.3-1.4,0.4C446.5,251.5,446.1,251.2,445.8,250.8z"/>
<path d="M465.9,752.9c-4.9,3.9-9.3,6.8-12.8,10.4c-7.9,8.1-5.9,21.5,4,26.9c18.5,10.2,37.5,9.8,56,0.3c4.5-2.3,8.4-6.7,11.2-11.1
	c3.5-5.5,1.6-11.5-3.5-16c-0.7-0.6-1.3-1.5-1.9-2.3c4.4-1.8,9.4,1.2,11.8,6.7c4.6,10.5,1.6,19.6-5,28c-6.9,8.8-16.7,13.2-27,16.2
	c-12.8,3.8-25.8,2.9-38.7,0.3c-10.7-2.1-19.2-8.1-24.2-17.7c-4.3-8.1-3.5-17,1.3-24.9C443.3,759.4,452.9,754.1,465.9,752.9z"/>
<path d="M535,249c0.3,4.3,1.2,8.7,0.8,12.9c-1.7,17.4-8.5,32.6-19.8,46.1c-13.7,16.4-31.3,26.2-51.3,31.9
	c-12.5,3.6-25.4,3.5-38.2,0.9c-23.2-4.6-41-17.6-56.1-35.1c-9.9-11.4-16.5-24.6-21.5-38.6c-0.8-2.1-1.1-4.4-1.6-6.5
	c5.9,9.3,11.2,18.8,17.6,27.7c21.6,29.8,50.5,44.6,87.8,41.1c21.4-2,39.9-10.7,55.6-24.8c15.8-14.3,25.8-31.8,24.6-54.1
	c0-0.5,0.2-0.9,0.3-1.4C533.7,249.1,534.4,249,535,249z"/>
<path d="M568.3,501.8c3,7.7-1.3,16-8.6,18.6c-7.3,2.6-13.7-0.2-17-7.9c-4.5-10.3-3.9-21.1-2-31.9c1.3-7,2.1-14,7.4-19.8
	c8.5-9.3,19.2-10.6,29.7-2.5c9.1,7,14,16.9,17.4,27.4c7.3,22.3,6.1,44.9-0.9,66.8c-5.4,16.8-12.6,33-23.8,47
	c-1.9,2.4-4.4,4.3-7.6,5.7c0.1-0.5,0.1-1.2,0.4-1.6c13.7-17.1,21-37.1,25.1-58.2c4.2-21.5,3.1-42.9-6.4-63.2
	c-3.2-6.8-7.6-12.5-15.3-14.9c-5.6-1.7-10-0.4-12.9,4.6c-6.3,10.9-7.2,22.7-4.7,34.8c1.2,5.8,4.6,8.4,9.1,8.2c4.5-0.2,8-3.8,9.1-9.1
	C567.6,504.6,567.9,503.2,568.3,501.8z"/>
<path d="M53.5,435.2c-1.9,4.5-4.6,8.9-5.7,13.6c-1.4,6.6-2.3,13.5-2.2,20.2c0.1,7.5,5.2,10.3,12,7.2c2.8-1.3,5.6-3.2,7.5-5.6
	c11-13.6,21-28.1,32.7-40.9c7.8-8.5,17.5-15.4,27.2-21.7c10.9-7.2,22.2-13.6,31-23.5c3.7-4.2,6.8-8.9,11.4-13.1
	c-1.5,3.5-2.7,7.3-4.6,10.6c-6.7,11.7-15.9,21.1-26.6,29.5c-15.3,12-30.3,24.4-41.6,40.7c-6.4,9.3-13.4,18.3-21.2,26.5
	c-4.9,5.1-11.5,8.9-17.9,12.2c-6,3-14.3-2-16.5-9c-2.6-8.1-1.8-16.3,0.5-24.2C42.2,449.2,45.7,440.8,53.5,435.2z"/>
<path d="M680.7,232.9c-0.1,1.6,0.1,3.4-0.3,4.9c-3.2,11.5-11.5,19.3-19.9,26.9c-4.8,4.3-10,8.3-14.4,13.1
	c-9.2,10.2-9.5,18.6-1.9,30.1c0.9,1.3,1.6,2.7,2.8,4.8c-8.4-2.4-15.7-4.4-23.6-6.7c2.1,8.8,5.1,16.1,5.3,23.5
	c0.2,7.3-2.4,14.7-3.9,22.6c11-1.7,19.5-7.6,26.8-16c-3,10-8,18-18.1,22.2c-9.5,4-19,5-28.6,0.8c-1.7-0.7-2.9-2.5-4.3-3.7
	c1.3-1.1,2.5-2.5,4-3.3c13.1-6.6,18.2-18.3,13.1-31.6c-2.5-6.5-7.6-10.7-14.4-12.6c-1.9-0.5-3.5-2-5.3-3c1.2-1.7,2-4.2,3.6-4.9
	c5-2.2,10.2-4.8,15.4-5.1c5.7-0.3,8.4-1.3,10.1-7.2c3.2-10.9,12-17.2,21.5-22.5c4.6-2.6,9.4-5.1,13.8-8c8.9-5.8,13.9-14.4,16.5-24.7
	C679.6,232.6,680.2,232.8,680.7,232.9z"/>
<path d="M789,385.9c-0.4-3.4-0.5-6.9-1.4-10.2c-3.7-14.6-12.4-26-23.5-35.7c-8.4-7.3-17.1-14.3-25.7-21.3c-1-0.9-3.3-1.8-3.9-1.4
	c-1.1,0.9-1.6,2.7-2,4.3c-3,12.6-7.7,24.3-16.6,34.2c8-31.4,12.4-62.6-5.5-93.1c1.6,1,3.6,1.8,4.7,3.2c6.1,7.7,12.7,15.1,17.7,23.4
	c9.1,15.4,20.5,28.7,32.7,41.5c10.8,11.3,21.4,22.6,25.4,38.2c1.2,4.5,0.9,9.5,1,14.2c0,1.1-1,2.1-1.6,3.2
	C790,386.1,789.5,386,789,385.9z"/>
<path d="M428.3,352.4c-3.9,2.3-7.9,4.6-11.8,6.8c-6.7,3.7-13.3,7.5-20.1,11c-9.2,4.7-18.6,8.3-29.2,4.8c-9.1-3-15-9.6-19.7-17.5
	c-1.8-3-3.3-6.3-4.1-9.6c-1.3-5.5-4.3-7.5-9.9-8.2c-17.9-2.2-31.5-12.4-42.6-25.7c-5.6-6.6-9.5-14.7-14.1-22.1
	c-0.3-0.5-0.3-1.2,0.5-2.3c2.4,3.5,4.6,7.3,7.3,10.6c8.6,10.5,18,20.2,30.7,25.8c13.6,6,28.4,3.6,34.9-13.1c0.4-1.1,1-2,2.5-3
	c0,2.6,0.3,5.3-0.1,7.9c-1.4,9.6-0.6,19.1,3.1,28c7.5,18.4,22.5,24.2,40.6,17.7c10.2-3.6,20.1-8,30.1-12c0.4-0.2,0.9,0,1.4,0
	C427.8,351.8,428,352.1,428.3,352.4z"/>
<path d="M670.3,237.3c0-2.3,0.2-4.7,0-7c-1-8.1-2.4-16.1-3.2-24.2c-0.8-8.4,4.6-13.9,12.6-16.7c17.1-6.1,34.9,12.1,36.8,28.2
	c1.8,14.6-4.2,26.2-12.2,37.4c-1.3,1.8-2.5,3.6-4.1,5.1c-1.1,1.1-2.7,1.6-4.5,2.6c3.4-7.1,6.7-13.1,9.2-19.5
	c4.3-10.8,3-21.3-3.1-31.1c-3.5-5.6-8.9-9.1-15.2-10.6c-4.8-1.2-10.5,2.5-11.2,7.6c-0.8,5.9-0.7,11.9-1.2,17.9
	c-0.3,3.6-1.2,7.1-1.8,10.7C671.8,237.5,671.1,237.4,670.3,237.3z"/>
<path d="M32.8,369.4c-10.1,16.4-20.6,32.6-19.7,52.9c0.5,0.4,1.1,0.8,1.6,1.2c5.1-6.1,10.2-12.3,15.3-18.4c0.4,0.3,0.9,0.6,1.3,0.9
	c-1.8,3.2-4,6.3-5.3,9.7c-4.2,10.6-8.7,21.2-11.7,32.2c-1.2,4.4,1.1,10,2.7,14.8c0.5,1.7,3.6,2.6,5.6,3.6c1.2,0.6,2.7,0.8,5.6,1.5
	c-5.5,4.8-10.7,5.4-16.1,4.9c-5-0.4-8.7-3.4-9.8-8.1c-1-4.1-1.5-8.8-0.5-12.8c1.5-5.8,1-10.9-0.9-16.5c-1.2-3.7-1.4-8.4-0.3-12.2
	c6-20,17.4-36.9,30.6-52.7C31.8,370.1,32.4,369.8,32.8,369.4z"/>
<path d="M434.9,210.9c-0.2-2.7-2.7-21.4-4.7-29.1c-1.6-6.3-7.4-11.1-11.7-10.8c-6.6,0.5-10,5.5-11.8,10.9
	c-3.8,10.9-4.5,22.2-1.4,33.5c0.8,2.8,2.3,5.8,4.4,7.6c1.7,1.5,5,2.3,7.1,1.6c1.7-0.6,3.5-3.7,3.5-5.7c0-3-2.3-5-5.8-4.8
	c-0.9,0-1.8-0.4-2.8-0.7c5-7.5,13.4-7.1,18.3,0.6c4,6.2,1.9,19.3-3.7,24c-5.6,4.6-13.6,3.4-18.6-2.6c-5.8-7-8.1-15.2-9-23.9
	c-1.2-13.3-0.7-26.4,6-38.4c2.7-4.8,5.4-9.8,12-10.1c6.3-0.3,10.5,3.3,13.2,8.4C436.2,183,436,209.4,434.9,210.9z"/>
<path d="M91.5,364.2c5.5-12.1,14.9-20.3,26.3-26.4c3.4-1.8,6.9-3.4,10.4-4.7c5.6-2.1,6.3-5.2,4.4-10.9c-5.2-15.4-18.4-20.5-31.5-26
	c-1.5-0.6-3-1.1-5-1.9c4.3-3.9,8.4-2,12.2-1.1c13.5,3.2,25.7,8.7,33.5,20.8c2.6,4,3.6,8.9,6,13.1c1.5,2.7,3.8,5.2,6.4,7
	c6.4,4.4,9.6,10.6,11.7,17.9c-3.8-2.9-7.3-6.3-11.4-8.7c-8.6-5.1-17.3-5-26.8-1.4c-12,4.6-23,10.4-32.3,19.4
	C94.3,362.4,92.8,363.2,91.5,364.2z"/>
<path d="M297.1,772.7c-4.2,1.7-8.3,4.1-12.6,4.9c-14.6,2.8-28.6,1.9-40.7-8.2c-3.7-3.1-6.3-2.6-9.3,1.2c-5.4,7-3.8,17.3,3.7,23.1
	c1.7,1.3,3.4,2.4,5.8,4.1c-6.2,1.9-10.5-0.4-14.2-3.7c-12.6-11.4-11.9-29.5,1.5-40c1.6-1.2,3.2-2.5,4.9-3.4
	c6.9-3.8,10.5-5.7,14.4,4.8c4.3,11.7,14.5,16.6,26.5,17c6.4,0.3,12.9-0.6,19.3-0.9C296.7,771.9,296.9,772.3,297.1,772.7z"/>
<path d="M485.6,517.7c11,5.3,16.4-1.3,18.9-8.9c3.6-11,3.8-22.3-0.6-33.4c-3.3-8.4-11.6-9.6-17.2-2.4c-5.8,7.4-8.1,15.9-7.4,25.3
	c0.1,1.3,0.2,2.5,0.4,4.8c-1.1-1.4-1.9-2-2-2.7c-3.1-13.3-2.8-26.3,5.4-37.8c6-8.4,15.9-8.6,22-0.3c2.6,3.5,4.8,7.8,5.7,12
	c2.8,13.6,1.7,26.9-4.8,39.4c-1.6,3-4.2,5.6-7,7.7C494.1,525,489.6,523.7,485.6,517.7z"/>
<path d="M159.5,329.6c1.1-0.9,1.4-1.3,1.8-1.4c15.4-2.7,31.7,11.3,32.7,26.9c1.1,17.3-11.6,29.6-24.4,35.7c-0.8,0.4-1.8,0.5-2.7,0.7
	c-0.5-0.6-1-1.1-1.4-1.7c2.6-2,5.2-3.9,7.8-6c8.6-7.1,11.6-16.9,12.1-27.5c0.4-8.2-8.9-20.2-17-22.9
	C165.6,332.2,162.8,330.9,159.5,329.6z"/>
<path d="M125.8,642.1c-7.3,1.4-10.5,6.3-13.7,12.1c0.7-8.8,9.7-16.2,18.8-16.1c9.2,0,12.5,2.1,15,9.5c1.8,5.3,0.7,10.8-3.9,13.2
	c-3.2,1.7-7.9,2.5-11.2,1.5c-5.3-1.6-7.5-7.1-6.7-12.5C124.5,647.4,125.1,645.1,125.8,642.1z"/>
<path d="M404.5,348.4c-3.2-1.5-6.5-4.1-10.1-4.4c-3.6-0.3-8,0.8-11,2.9c-2.8,2-4.3,6-7.1,8.7c1-7.1,5-13.6,0.7-20.8
	c-3.9-6.6-9.6-9.8-17.4-10c3.3-3.7,10-4.8,14.7-1.9c3.2,1.9,6.5,4.7,8.1,7.8c2.1,4.2,4.6,5.9,9.1,6.3
	C399,337.6,403.2,341.8,404.5,348.4z"/>
<path d="M404.8,135c-10.7,2.1-18.3,6.8-22.1,17.1c-1.2-6.1,2.2-13,8.4-16.8C395,132.9,399.4,131.2,404.8,135z"/>
<path d="M358.5,245.3c-10.8-2-12.8-0.8-13.5,8.8c-0.6-2-0.6-4.4-1.8-6c-1.3-1.7-3.7-2.6-6.5-4.4
	C344.8,241.7,351.7,242.2,358.5,245.3z"/>
</svg>
