<?xml version="1.0" encoding="utf-8"?>
<!-- Generator: Adobe Illustrator 19.1.0, SVG Export Plug-In . SVG Version: 6.00 Build 0)  -->
<svg version="1.1" id="Layer_1" xmlns="http://www.w3.org/2000/svg" xmlns:xlink="http://www.w3.org/1999/xlink" x="0px" y="0px"
	 viewBox="-55 147 500 500" style="enable-background:new -55 147 500 500;" xml:space="preserve">
<style type="text/css">
	.st0{opacity:0.5;enable-background:new    ;}
</style>
<path class="st0" d="M315.1,284.1L260.40000000000003,221.90000000000003L210.40000000000003,232.80000000000004L191.60000000000002,259.30000000000007L229.8,325.4000000000001L276.7,331.7000000000001L368.4,360.1000000000001L418.29999999999995,435.30000000000007L419.9,452.80000000000007L410.79999999999995,425.9000000000001L367.99999999999994,375.30000000000007L360.19999999999993,373.4000000000001L358.49999999999994,381.9000000000001L356.99999999999994,397.1000000000001L341.19999999999993,374.2000000000001L291.69999999999993,345.5000000000001L251.59999999999994,378.0000000000001L256.19999999999993,445.10000000000014L279.0999999999999,484.20000000000016L257.0999999999999,468.50000000000017L208.99999999999991,455.1000000000002L152.7999999999999,498.6000000000002L144.3999999999999,523.5000000000002L128.8999999999999,491.80000000000024L39.19999999999989,548.6000000000003L-6.300000000000111,529.9000000000002L24.599999999999888,535.3000000000002L76.69999999999989,512.3000000000002L90.5999999999999,488.6000000000002L93.0999999999999,445.8000000000002L41.099999999999895,402.3000000000002L-18.700000000000102,431.8000000000002L-29.9000000000001,446.9000000000002L-23.5000000000001,428.7000000000002L19.599999999999902,382.6000000000002L65.89999999999989,374.7000000000002L115.7999999999999,396.6000000000002L136.7999999999999,432.1000000000002L180.0999999999999,373.9000000000002L204.49999999999991,358.1000000000002L162.7999999999999,329.7000000000002L153.9999999999999,261.7000000000002L215.59999999999988,205.3000000000002L260.6999999999999,205.0000000000002L314.4999999999999,250.5000000000002L315.1,284.1z"/>
</svg>
