<?xml version="1.0" encoding="utf-8"?>
<!-- Generator: Adobe Illustrator 19.1.0, SVG Export Plug-In . SVG Version: 6.00 Build 0)  -->
<svg version="1.1" id="Layer_1" xmlns="http://www.w3.org/2000/svg" xmlns:xlink="http://www.w3.org/1999/xlink" x="0px" y="0px"
	 viewBox="0 0 500 500" style="enable-background:new 0 0 500 500;" xml:space="preserve">
<style type="text/css">
	.st0{fill:none;stroke:#000000;stroke-miterlimit:10;}
	.st1{fill:none;stroke:#ff0000;stroke-miterlimit:10;}
	.st2{fill:#0000ff;}
	.st3{fill:#00ff00;}
	.st4{fill:#ff0000;}
	.st5{fill:#ffff00;}
	.st6{fill:none;stroke:#ff00ff;stroke-miterlimit:10;}

</style>

<line class='st0' x1='-10.100107257675827' y1='420.5230630086003' x2='502.65165057765535' y2='391.92041000882756'/>
<line class='st0' x1='-0.3277320939293664' y1='-2.9770877298565965' x2='23.32856632100257' y2='419.6563159480497'/>
<line class='st0' x1='31.581456322101076' y1='-4.936689779773546' x2='54.91002264352704' y2='418.0358757913568'/>
<line class='st0' x1='63.52043856519879' y1='-6.594814591447707' x2='86.93838636613296' y2='416.30238166998805'/>
<line class='st0' x1='95.51900846158424' y1='-8.328308712548683' x2='118.90716243587454' y2='414.53120289417365'/>
<line class='st0' x1='127.42819687761467' y1='-10.024118178936252' x2='150.72696937197338' y2='412.7223394633781'/>
<line class='st0' x1='159.367179120289' y1='-11.795296955018399' x2='182.42760100107333' y2='410.98884534200937'/>
<line class='st0' x1='191.1869860563878' y1='-13.604160385813953' x2='214.45596472410267' y2='409.1799819112138'/>
<line class='st0' x1='223.09617447241828' y1='-15.375339161896102' x2='246.51412227377583' y2='407.2957491707237'/>
<line class='st0' x1='255.03515671551597' y1='-17.18420259269166' x2='270.021451555065' y2='264.88543864941687'/>
<line class='st0' x1='286.9741389581903' y1='-18.955381368773807' x2='302.49672267902264' y2='263.26499849245613'/>
<line class='st0' x1='318.94291502793186' y1='-20.952668073404162' x2='334.55488022869577' y2='261.7199276454577'/>
<line class='st0' x1='350.2562269098147' y1='-22.72384684948631' x2='373.8827314981028' y2='400.32408803133865'/>
<line class='st0' x1='382.19520915248904' y1='-24.155863732344496' x2='405.7323322604221' y2='398.55290925525645'/>
<line class='st0' x1='413.80645930165736' y1='-26.266204401650608' x2='437.6415206768759' y2='396.7063611697475'/>
<line class='st0' x1='445.9539983312622' y1='-28.188121796854148' x2='469.7890597064807' y2='394.8974977389519'/>
<line class='st0' x1='478.01215588135875' y1='-29.996985227649706' x2='501.63866046922345' y2='393.23937292727777'/>
<line class='st0' x1='-13.913717077829347' y1='350.20349713585404' x2='243.14741985455058' y2='335.883328308611'/>
<line class='st0' x1='368.69860564894407' y1='328.87398251424474' x2='498.6890716242826' y2='321.41242086224656'/>
<line class='st0' x1='-17.965677511557228' y1='280.1854085016184' x2='493.7135025620543' y2='251.3189629183163'/>
<line class='st0' x1='-21.987844118641235' y1='208.69761832981112' x2='490.1978310091863' y2='181.71540548673144'/>
<line class='st0' x1='-25.771660112150883' y1='139.43322279171795' x2='486.08628292217065' y2='110.67983117282388'/>
<line class='st0' x1='-29.674651412236017' y1='69.0759722639906' x2='481.94494100808777' y2='40.13415737099394'/>
<line class='st0' x1='-33.547848885677276' y1='-0.9044317152638948' x2='478.0419497080026' y2='-29.996985227649706'/>

<circle class="st2" cx="370.1" cy="138.6" r="2"/>
<circle class="st2" cx="315.40000000000003" cy="76.39999999999999" r="2"/>
<circle class="st3" cx="342.8" cy="80.3" r="2"/>
<circle class="st3" cx="370.5" cy="122.1" r="2"/>
<circle class="st2" cx="265.40000000000003" cy="87.3" r="2"/>
<circle class="st3" cx="280.20000000000005" cy="76.99999999999999" r="2"/>
<circle class="st3" cx="297.40000000000003" cy="73.89999999999999" r="2"/>
<circle class="st2" cx="246.60000000000002" cy="113.8" r="2"/>
<circle class="st3" cx="250.50000000000003" cy="103.1" r="2"/>
<circle class="st3" cx="256.40000000000003" cy="93.5" r="2"/>
<circle class="st2" cx="284.8" cy="179.89999999999998" r="2"/>
<circle class="st3" cx="256.6" cy="172.2" r="2"/>
<circle class="st3" cx="236.40000000000003" cy="141.5" r="2"/>
<circle class="st2" cx="331.7" cy="186.2" r="2"/>
<circle class="st3" cx="315.8" cy="185.59999999999997" r="2"/>
<circle class="st3" cx="300.3" cy="184.09999999999997" r="2"/>
<circle class="st2" cx="423.4" cy="214.6" r="2"/>
<circle class="st3" cx="396.29999999999995" cy="194.7" r="2"/>
<circle class="st3" cx="364.59999999999997" cy="187.6" r="2"/>
<circle class="st2" cx="473.29999999999995" cy="289.8" r="2"/>
<circle class="st3" cx="467.79999999999995" cy="257.4" r="2"/>
<circle class="st3" cx="449" cy="233.4" r="2"/>
<circle class="st2" cx="474.9" cy="307.3" r="2"/>
<circle class="st3" cx="475.19999999999993" cy="301.3" r="2"/>
<circle class="st3" cx="474.29999999999995" cy="295.6" r="2"/>
<circle class="st2" cx="465.79999999999995" cy="280.40000000000003" r="2"/>
<circle class="st3" cx="469.7" cy="289" r="2"/>
<circle class="st3" cx="471.9" cy="298.3" r="2"/>
<circle class="st2" cx="422.99999999999994" cy="229.80000000000004" r="2"/>
<circle class="st3" cx="442.9" cy="241.80000000000004" r="2"/>
<circle class="st3" cx="456.29999999999995" cy="259.6" r="2"/>
<circle class="st2" cx="415.19999999999993" cy="227.90000000000003" r="2"/>
<circle class="st3" cx="417.79999999999995" cy="228.50000000000003" r="2"/>
<circle class="st3" cx="420.79999999999995" cy="228.40000000000003" r="2"/>
<circle class="st2" cx="413.49999999999994" cy="236.40000000000003" r="2"/>
<circle class="st3" cx="413.5999999999999" cy="233.50000000000003" r="2"/>
<circle class="st3" cx="414.5999999999999" cy="230.70000000000005" r="2"/>
<circle class="st2" cx="411.99999999999994" cy="251.60000000000002" r="2"/>
<circle class="st3" cx="412.3999999999999" cy="251.60000000000002" r="2"/>
<circle class="st3" cx="413.19999999999993" cy="241.40000000000003" r="2"/>
<circle class="st2" cx="396.19999999999993" cy="228.70000000000002" r="2"/>
<circle class="st3" cx="401.49999999999994" cy="236.3" r="2"/>
<circle class="st3" cx="406.69999999999993" cy="244.00000000000003" r="2"/>
<circle class="st2" cx="346.69999999999993" cy="200.00000000000003" r="2"/>
<circle class="st3" cx="368.19999999999993" cy="200.9" r="2"/>
<circle class="st3" cx="384.0999999999999" cy="211.50000000000003" r="2"/>
<circle class="st2" cx="306.5999999999999" cy="232.50000000000003" r="2"/>
<circle class="st3" cx="311.99999999999994" cy="214.60000000000002" r="2"/>
<circle class="st3" cx="333.19999999999993" cy="199.50000000000003" r="2"/>
<circle class="st2" cx="311.19999999999993" cy="299.6" r="2"/>
<circle class="st3" cx="302.8999999999999" cy="278.1" r="2"/>
<circle class="st3" cx="299.7999999999999" cy="255.80000000000004" r="2"/>
<circle class="st2" cx="334.0999999999999" cy="338.70000000000005" r="2"/>
<circle class="st3" cx="334.0999999999999" cy="337.20000000000005" r="2"/>
<circle class="st3" cx="316.0999999999999" cy="312.40000000000003" r="2"/>
<circle class="st2" cx="312.0999999999999" cy="323.00000000000006" r="2"/>
<circle class="st3" cx="319.0999999999999" cy="328.70000000000005" r="2"/>
<circle class="st3" cx="326.69999999999993" cy="333.50000000000006" r="2"/>
<circle class="st2" cx="263.9999999999999" cy="309.6000000000001" r="2"/>
<circle class="st3" cx="281.19999999999993" cy="309.1000000000001" r="2"/>
<circle class="st3" cx="297.9999999999999" cy="311.40000000000003" r="2"/>
<circle class="st2" cx="207.7999999999999" cy="353.1000000000001" r="2"/>
<circle class="st3" cx="218.2999999999999" cy="328.1000000000001" r="2"/>
<circle class="st3" cx="234.9999999999999" cy="310.50000000000006" r="2"/>
<circle class="st2" cx="199.3999999999999" cy="378.00000000000006" r="2"/>
<circle class="st3" cx="202.5999999999999" cy="368.50000000000006" r="2"/>
<circle class="st3" cx="204.6999999999999" cy="360.6000000000001" r="2"/>
<circle class="st2" cx="183.8999999999999" cy="346.30000000000007" r="2"/>
<circle class="st3" cx="189.2999999999999" cy="357.40000000000003" r="2"/>
<circle class="st3" cx="194.09999999999988" cy="367.00000000000006" r="2"/>
<circle class="st2" cx="94.19999999999989" cy="403.1000000000001" r="2"/>
<circle class="st3" cx="136.9999999999999" cy="405.9000000000001" r="2"/>
<circle class="st3" cx="165.1999999999999" cy="383.9000000000001" r="2"/>
<circle class="st2" cx="48.69999999999989" cy="384.4000000000001" r="2"/>
<circle class="st3" cx="62.79999999999989" cy="394.9000000000001" r="2"/>
<circle class="st3" cx="77.69999999999989" cy="402.00000000000006" r="2"/>
<circle class="st2" cx="79.59999999999988" cy="389.80000000000007" r="2"/>
<circle class="st3" cx="69.89999999999989" cy="389.0000000000001" r="2"/>
<circle class="st3" cx="50.09999999999989" cy="383.80000000000007" r="2"/>
<circle class="st2" cx="131.69999999999987" cy="366.80000000000007" r="2"/>
<circle class="st3" cx="118.59999999999988" cy="383.50000000000006" r="2"/>
<circle class="st3" cx="100.79999999999988" cy="391.6000000000001" r="2"/>
<circle class="st2" cx="145.59999999999988" cy="343.1000000000001" r="2"/>
<circle class="st3" cx="141.9999999999999" cy="351.50000000000006" r="2"/>
<circle class="st3" cx="137.39999999999986" cy="359.70000000000005" r="2"/>
<circle class="st2" cx="148.09999999999988" cy="300.30000000000007" r="2"/>
<circle class="st3" cx="151.9999999999999" cy="315.2000000000001" r="2"/>
<circle class="st3" cx="151.59999999999988" cy="329.30000000000007" r="2"/>
<circle class="st2" cx="96.09999999999988" cy="256.80000000000007" r="2"/>
<circle class="st3" cx="117.59999999999988" cy="257.20000000000005" r="2"/>
<circle class="st3" cx="142.19999999999987" cy="277.4000000000001" r="2"/>
<circle class="st2" cx="36.29999999999988" cy="286.30000000000007" r="2"/>
<circle class="st3" cx="51.09999999999988" cy="266.20000000000005" r="2"/>
<circle class="st3" cx="71.09999999999988" cy="256.30000000000007" r="2"/>
<circle class="st2" cx="25.099999999999884" cy="301.4000000000001" r="2"/>
<circle class="st3" cx="25.499999999999883" cy="301.6000000000001" r="2"/>
<circle class="st3" cx="32.69999999999988" cy="291.20000000000005" r="2"/>
<circle class="st2" cx="31.499999999999886" cy="283.2000000000001" r="2"/>
<circle class="st3" cx="28.799999999999883" cy="289.1000000000001" r="2"/>
<circle class="st3" cx="27.199999999999886" cy="295.4000000000001" r="2"/>
<circle class="st2" cx="74.59999999999988" cy="237.1000000000001" r="2"/>
<circle class="st3" cx="54.999999999999886" cy="247.5000000000001" r="2"/>
<circle class="st3" cx="40.79999999999988" cy="263.1000000000001" r="2"/>
<circle class="st2" cx="120.89999999999988" cy="229.2000000000001" r="2"/>
<circle class="st3" cx="104.79999999999988" cy="228.2000000000001" r="2"/>
<circle class="st3" cx="88.99999999999989" cy="229.5000000000001" r="2"/>
<circle class="st2" cx="170.79999999999987" cy="251.1000000000001" r="2"/>
<circle class="st3" cx="157.4999999999999" cy="236.2000000000001" r="2"/>
<circle class="st3" cx="140.19999999999987" cy="230.5000000000001" r="2"/>
<circle class="st2" cx="191.79999999999987" cy="286.60000000000014" r="2"/>
<circle class="st3" cx="190.39999999999986" cy="279.2000000000001" r="2"/>
<circle class="st3" cx="178.49999999999986" cy="259.60000000000014" r="2"/>
<circle class="st2" cx="235.09999999999985" cy="228.40000000000015" r="2"/>
<circle class="st3" cx="217.09999999999988" cy="245.30000000000013" r="2"/>
<circle class="st3" cx="207.79999999999987" cy="253.50000000000014" r="2"/>
<circle class="st2" cx="259.49999999999983" cy="212.60000000000014" r="2"/>
<circle class="st3" cx="253.19999999999985" cy="214.40000000000015" r="2"/>
<circle class="st3" cx="245.99999999999986" cy="218.20000000000016" r="2"/>
<circle class="st2" cx="217.79999999999984" cy="184.20000000000013" r="2"/>
<circle class="st3" cx="233.39999999999984" cy="206.00000000000014" r="2"/>
<circle class="st3" cx="241.09999999999982" cy="209.40000000000015" r="2"/>
<circle class="st2" cx="208.99999999999983" cy="116.20000000000013" r="2"/>
<circle class="st3" cx="200.79999999999984" cy="139.5000000000001" r="2"/>
<circle class="st3" cx="201.99999999999983" cy="163.10000000000014" r="2"/>
<circle class="st2" cx="270.59999999999985" cy="59.80000000000013" r="2"/>
<circle class="st3" cx="239.99999999999983" cy="68.00000000000013" r="2"/>
<circle class="st3" cx="219.29999999999984" cy="87.10000000000014" r="2"/>
<circle class="st2" cx="315.6999999999999" cy="59.500000000000135" r="2"/>
<circle class="st3" cx="300.89999999999986" cy="55.400000000000134" r="2"/>
<circle class="st3" cx="285.89999999999986" cy="55.80000000000013" r="2"/>
<circle class="st2" cx="369.4999999999999" cy="105.00000000000014" r="2"/>
<circle class="st3" cx="360.2999999999999" cy="79.70000000000013" r="2"/>
<circle class="st3" cx="340.39999999999986" cy="66.30000000000014" r="2"/>
<circle class="st2" cx="370.1" cy="138.6" r="2"/>
<circle class="st3" cx="374.8" cy="127.2" r="2"/>
<circle class="st3" cx="373.4" cy="115.8" r="2"/>


<circle class="st4" cx="23.27287896955057" cy="418.6614293232212" r="2"/>
<circle class="st4" cx="54.8473813276658" cy="416.90011983809666" r="2"/>
<circle class="st4" cx="86.8725614332182" cy="415.1136703529083" r="2"/>
<circle class="st4" cx="118.84074662248318" cy="413.3304001953154" r="2"/>
<circle class="st4" cx="150.66264992290647" cy="411.5552900294589" r="2"/>
<circle class="st4" cx="182.36204804885085" cy="409.78701352714955" r="2"/>
<circle class="st4" cx="214.39104081766632" cy="408.0003513614923" r="2"/>
<circle class="st4" cx="246.45406592812765" cy="406.2117907815555" r="2"/>
<circle class="st4" cx="373.81477443840384" cy="399.10727266794913" r="2"/>
<circle class="st4" cx="405.66427334972144" cy="397.3306231457263" r="2"/>
<circle class="st4" cx="437.57638530081425" cy="395.5504809020792" r="2"/>
<circle class="st4" cx="469.7248171241774" cy="393.75715610917655" r="2"/>
<circle class="st4" cx="501.5684046420087" cy="391.98083634016086" r="2"/>
<circle class="st4" cx="19.337363130352088" cy="348.35117092290875" r="2"/>
<circle class="st4" cx="50.96945410685376" cy="346.5890341466237" r="2"/>
<circle class="st4" cx="82.97926361082438" cy="344.805855710183" r="2"/>
<circle class="st4" cx="114.95217434467096" cy="343.02473280272653" r="2"/>
<circle class="st4" cx="146.78799201625202" cy="341.25124697266" r="2"/>
<circle class="st4" cx="178.52737928465405" cy="339.48313301509853" r="2"/>
<circle class="st4" cx="210.5219301052735" cy="337.7008045979345" r="2"/>
<circle class="st4" cx="242.5593564229051" cy="335.9160877047717" r="2"/>
<circle class="st4" cx="369.88855049097305" cy="328.8056786833857" r="2"/>
<circle class="st4" cx="401.74686648222865" cy="326.9769846548352" r="2"/>
<circle class="st4" cx="433.60911639270466" cy="325.1480648160257" r="2"/>
<circle class="st4" cx="465.7556836193193" cy="323.3028249250709" r="2"/>
<circle class="st4" cx="497.63241958692885" cy="321.4730735744456" r="2"/>
<circle class="st4" cx="15.416469709286552" cy="278.30215044905185" r="2"/>
<circle class="st4" cx="47.104571529138916" cy="276.51446218178774" r="2"/>
<circle class="st4" cx="79.09767904360454" cy="274.7095669797313" r="2"/>
<circle class="st4" cx="111.07392049186913" cy="272.9056232789302" r="2"/>
<circle class="st4" cx="142.92224542539563" cy="271.1088960044675" r="2"/>
<circle class="st4" cx="174.70017693827847" cy="269.316139983723" r="2"/>
<circle class="st4" cx="206.6589793142033" cy="267.51318011039103" r="2"/>
<circle class="st4" cx="238.66946269174454" cy="265.7073046468241" r="2"/>
<circle class="st4" cx="269.97129541421845" cy="263.94140779948526" r="2"/>
<circle class="st4" cx="302.4331994638923" cy="262.1100653816729" r="2"/>
<circle class="st4" cx="334.4765867237897" cy="260.3023336414261" r="2"/>
<circle class="st4" cx="365.96355006390644" cy="258.52599262690575" r="2"/>
<circle class="st4" cx="397.835283836316" cy="256.72794473984027" r="2"/>
<circle class="st4" cx="429.6524037302413" cy="254.9329779016288" r="2"/>
<circle class="st4" cx="461.80180437714404" cy="253.1192654027616" r="2"/>
<circle class="st4" cx="11.421939885174478" cy="206.9375732000693" r="2"/>
<circle class="st4" cx="43.17487883620165" cy="205.26481154589752" r="2"/>
<circle class="st4" cx="75.15886989647011" cy="203.5798779441447" r="2"/>
<circle class="st4" cx="107.14634421906672" cy="201.89476084228616" r="2"/>
<circle class="st4" cx="139.0151284303152" cy="200.21589639840363" r="2"/>
<circle class="st4" cx="170.83971427075113" cy="198.53936034812227" r="2"/>
<circle class="st4" cx="202.77025374930747" cy="196.85724260402537" r="2"/>
<circle class="st4" cx="234.76147416259192" cy="195.1719281561239" r="2"/>
<circle class="st4" cx="266.2295128252824" cy="193.51417520014934" r="2"/>
<circle class="st4" cx="298.56661575136746" cy="191.81063947814295" r="2"/>
<circle class="st4" cx="330.6005966168117" cy="190.12307238695703" r="2"/>
<circle class="st4" cx="362.0508335059351" cy="188.46625723784962" r="2"/>
<circle class="st4" cx="393.94081612824914" cy="186.78627605043621" r="2"/>
<circle class="st4" cx="425.71791325177884" cy="185.1122417309322" r="2"/>
<circle class="st4" cx="457.87510613443595" cy="183.41818376537262" r="2"/>
<circle class="st4" cx="489.83174398345255" cy="181.7346911452868" r="2"/>
<circle class="st4" cx="7.538743150246296" cy="137.56202574765297" r="2"/>
<circle class="st4" cx="39.34227433284132" cy="135.77547657048112" r="2"/>
<circle class="st4" cx="71.3047739515119" cy="133.97999741232576" r="2"/>
<circle class="st4" cx="103.29063202325233" cy="132.18320610348903" r="2"/>
<circle class="st4" cx="135.16696405566913" cy="130.39256737105362" r="2"/>
<circle class="st4" cx="167.02508894912165" cy="128.60295141652762" r="2"/>
<circle class="st4" cx="198.91511417396674" cy="126.81154347511581" r="2"/>
<circle class="st4" cx="230.8745220253446" cy="125.016237995609" r="2"/>
<circle class="st4" cx="262.4958580787383" cy="123.23992354854583" r="2"/>
<circle class="st4" cx="294.69562653643845" cy="121.43111591919957" r="2"/>
<circle class="st4" cx="326.7074331099427" cy="119.63286696485143" r="2"/>
<circle class="st4" cx="358.1080944126853" cy="117.86894882346691" r="2"/>
<circle class="st4" cx="390.00361968730914" cy="116.07723191921231" r="2"/>
<circle class="st4" cx="421.7272779274433" cy="114.2951695689532" r="2"/>
<circle class="st4" cx="453.87922393474236" cy="112.48904834442543" r="2"/>
<circle class="st4" cx="485.8659091470245" cy="110.69221057133772" r="2"/>
<circle class="st4" cx="3.599974809452682" cy="67.19365953201338" r="2"/>
<circle class="st4" cx="35.46031870088268" cy="65.39135135423072" r="2"/>
<circle class="st4" cx="67.4066030616126" cy="63.58418160900392" r="2"/>
<circle class="st4" cx="99.39636362586286" cy="61.774552457895915" r="2"/>
<circle class="st4" cx="131.2858068994911" cy="59.97059815681078" r="2"/>
<circle class="st4" cx="163.1831726130063" cy="58.16619569112814" r="2"/>
<circle class="st4" cx="195.0378694843514" cy="56.36420695969276" r="2"/>
<circle class="st4" cx="226.97079585190187" cy="54.5577928629432" r="2"/>
<circle class="st4" cx="258.75127616408685" cy="52.76000248893788" r="2"/>
<circle class="st4" cx="290.8188280702" cy="50.94597275847398" r="2"/>
<circle class="st4" cx="322.8139040574812" cy="49.13604291913643" r="2"/>
<circle class="st4" cx="354.17041493276724" cy="47.36223607731951" r="2"/>
<circle class="st4" cx="386.07695414406743" cy="45.55731467593005" r="2"/>
<circle class="st4" cx="417.75283481573103" cy="43.76544140025071" r="2"/>
<circle class="st4" cx="449.90512725167247" cy="41.946617981733105" r="2"/>
<circle class="st4" cx="481.92717281720894" cy="40.13516249999804" r="2"/>
<circle class="st4" cx="-0.3174919073200935" cy="-2.7941408949349427" r="2"/>
<circle class="st4" cx="31.59952062079501" cy="-4.609164176247785" r="2"/>
<circle class="st4" cx="63.52984512945955" cy="-6.4249444693453714" r="2"/>
<circle class="st4" cx="95.52365301405811" cy="-8.244334868658102" r="2"/>
<circle class="st4" cx="318.94308902559703" cy="-20.949517645445887" r="2"/>
<circle class="st4" cx="445.95489012908985" cy="-28.17229188853166" r="2"/>
<circle class="st4" cx="478.0122501628126" cy="-29.99529630498137" r="2"/>

<circle class="st5" cx="53.2333561085014" cy="387.63606741240335" r="2"/>
<circle class="st5" cx="53.084703895780265" cy="384.9408392991036" r="2"/>
<circle class="st5" cx="86.15056851682115" cy="402.0754322177658" r="2"/>
<circle class="st5" cx="85.48445250385757" cy="390.0462571311284" r="2"/>
<circle class="st5" cx="118.20691432004121" cy="401.87066642814267" r="2"/>
<circle class="st5" cx="117.0314827399096" cy="380.61877863707844" r="2"/>
<circle class="st5" cx="146.36019828556866" cy="341.2750781846422" r="2"/>
<circle class="st5" cx="149.41639288135366" cy="388.9424785710052" r="2"/>
<circle class="st5" cx="179.36203907718604" cy="354.7855817872731" r="2"/>
<circle class="st5" cx="210.98648449850418" cy="346.1414943891403" r="2"/>
<circle class="st5" cx="215.9342465329166" cy="337.399299337687" r="2"/>
<circle class="st5" cx="44.57540019904603" cy="276.65714570188686" r="2"/>
<circle class="st5" cx="34.479883495600525" cy="277.2266855520521" r="2"/>
<circle class="st5" cx="129.94848118643827" cy="271.8408125529591" r="2"/>
<circle class="st5" cx="146.73604321130026" cy="340.3086576891509" r="2"/>
<circle class="st5" cx="143.94282043018038" cy="289.62680153513423" r="2"/>
<circle class="st5" cx="183.4005095074651" cy="268.8253096227361" r="2"/>
<circle class="st5" cx="201.6775787446524" cy="267.794206452813" r="2"/>
<circle class="st5" cx="241.3741683761538" cy="314.52460089096434" r="2"/>
<circle class="st5" cx="302.94822883599255" cy="262.0810099345836" r="2"/>
<circle class="st5" cx="459.8405874952607" cy="253.2299077009098" r="2"/>
<circle class="st5" cx="449.8969971222692" cy="253.79087660795685" r="2"/>
<circle class="st5" cx="462.02341005471317" cy="257.05288965113414" r="2"/>
<circle class="st5" cx="463.0125399866989" cy="274.61049705510345" r="2"/>
<circle class="st5" cx="46.98611465257383" cy="274.36670872367284" r="2"/>
<circle class="st5" cx="46.18830569423554" cy="259.9015548305825" r="2"/>
<circle class="st5" cx="78.19409684261497" cy="258.3920662901384" r="2"/>
<circle class="st5" cx="76.94975826835798" cy="235.9209557245969" r="2"/>
<circle class="st5" cx="110.34322563675838" cy="259.69460756963736" r="2"/>
<circle class="st5" cx="108.64278268001569" cy="228.95047620323345" r="2"/>
<circle class="st5" cx="140.79529186353864" cy="232.51621546464978" r="2"/>
<circle class="st5" cx="173.91015993762701" cy="254.8321612539657" r="2"/>
<circle class="st5" cx="206.2652854405746" cy="260.3599857623881" r="2"/>
<circle class="st5" cx="226.69241817282312" cy="195.59701030256295" r="2"/>
<circle class="st5" cx="236.52931193937943" cy="227.07967359344806" r="2"/>
<circle class="st5" cx="235.23536610409806" cy="203.72521490727235" r="2"/>
<circle class="st5" cx="331.38303343326527" cy="204.28999135255228" r="2"/>
<circle class="st5" cx="357.8193230233165" cy="188.68917545293095" r="2"/>
<circle class="st5" cx="362.1030764521448" cy="189.40170117639533" r="2"/>
<circle class="st5" cx="362.8494043270016" cy="202.76518729945994" r="2"/>
<circle class="st5" cx="394.597719826192" cy="198.5837652701327" r="2"/>
<circle class="st5" cx="396.2811196338799" cy="228.81634143894152" r="2"/>
<circle class="st5" cx="427.55688828068537" cy="217.7463505235832" r="2"/>
<circle class="st5" cx="428.4350945648157" cy="233.33083588537522" r="2"/>
<circle class="st5" cx="206.02656717556823" cy="126.41206077504835" r="2"/>
<circle class="st5" cx="244.157012602124" cy="124.27010001254992" r="2"/>
<circle class="st5" cx="264.9698602545594" cy="169.80519626188283" r="2"/>
<circle class="st5" cx="298.07526113253846" cy="182.87718550769407" r="2"/>
<circle class="st5" cx="330.3810588775567" cy="186.14808898061378" r="2"/>
<circle class="st5" cx="363.07729965662253" cy="117.58980593556602" r="2"/>
<circle class="st5" cx="372.5988689724547" cy="117.05493602665811" r="2"/>
<circle class="st5" cx="228.58443115181848" cy="83.6823341837084" r="2"/>
<circle class="st5" cx="260.78363447145375" cy="91.01272504458701" r="2"/>
<circle class="st5" cx="259.32130061646797" cy="63.48891143564039" r="2"/>
<circle class="st5" cx="292.2238753968958" cy="76.49152608867624" r="2"/>
<circle class="st5" cx="291.1334964834201" cy="56.66704604797344" r="2"/>
<circle class="st5" cx="324.4632334929725" cy="78.99905034519921" r="2"/>
<circle class="st5" cx="323.520985644666" cy="61.93856874238824" r="2"/>
<circle class="st5" cx="357.5991754858313" cy="108.75642436083079" r="2"/>
<circle class="st5" cx="356.13578834125474" cy="82.55352553037346" r="2"/>

<line class='st6' x1='50.96945410685376' y1='346.5890341466237' x2='54.8473813276658' y2='416.90011983809666'/>
<line class='st6' x1='50.96945410685376' y1='346.5890341466237' x2='54.8473813276658' y2='416.90011983809666'/>
<line class='st6' x1='82.97926361082438' y1='344.805855710183' x2='86.8725614332182' y2='415.1136703529083'/>
<line class='st6' x1='82.97926361082438' y1='344.805855710183' x2='86.8725614332182' y2='415.1136703529083'/>
<line class='st6' x1='114.95217434467096' y1='343.02473280272653' x2='118.84074662248318' y2='413.3304001953154'/>
<line class='st6' x1='114.95217434467096' y1='343.02473280272653' x2='118.84074662248318' y2='413.3304001953154'/>
<line class='st6' x1='146.78799201625202' y1='341.25124697266' x2='114.95217434467096' y2='343.02473280272653'/>
<line class='st6' x1='146.78799201625202' y1='341.25124697266' x2='150.66264992290647' y2='411.5552900294589'/>
<line class='st6' x1='178.52737928465405' y1='339.48313301509853' x2='182.36204804885085' y2='409.78701352714955'/>
<line class='st6' x1='210.5219301052735' y1='337.7008045979345' x2='214.39104081766632' y2='408.0003513614923'/>
<line class='st6' x1='242.5593564229051' y1='335.9160877047717' x2='210.5219301052735' y2='337.7008045979345'/>
<line class='st6' x1='47.104571529138916' y1='276.51446218178774' x2='15.416469709286552' y2='278.30215044905185'/>
<line class='st6' x1='47.104571529138916' y1='276.51446218178774' x2='15.416469709286552' y2='278.30215044905185'/>
<line class='st6' x1='142.92224542539563' y1='271.1088960044675' x2='111.07392049186913' y2='272.9056232789302'/>
<line class='st6' x1='142.92224542539563' y1='271.1088960044675' x2='146.78799201625202' y2='341.25124697266'/>
<line class='st6' x1='142.92224542539563' y1='271.1088960044675' x2='146.78799201625202' y2='341.25124697266'/>
<line class='st6' x1='206.6589793142033' y1='267.51318011039103' x2='174.70017693827847' y2='269.316139983723'/>
<line class='st6' x1='206.6589793142033' y1='267.51318011039103' x2='174.70017693827847' y2='269.316139983723'/>
<line class='st6' x1='238.66946269174454' y1='265.7073046468241' x2='242.5593564229051' y2='335.9160877047717'/>
<line class='st6' x1='334.4765867237897' y1='260.3023336414261' x2='302.4331994638923' y2='262.1100653816729'/>
<line class='st6' x1='461.80180437714404' y1='253.1192654027616' x2='429.6524037302413' y2='254.9329779016288'/>
<line class='st6' x1='461.80180437714404' y1='253.1192654027616' x2='429.6524037302413' y2='254.9329779016288'/>
<line class='st6' x1='461.80180437714404' y1='253.1192654027616' x2='465.7556836193193' y2='323.3028249250709'/>
<line class='st6' x1='461.80180437714404' y1='253.1192654027616' x2='465.7556836193193' y2='323.3028249250709'/>
<line class='st6' x1='43.17487883620165' y1='205.26481154589752' x2='47.104571529138916' y2='276.51446218178774'/>
<line class='st6' x1='43.17487883620165' y1='205.26481154589752' x2='47.104571529138916' y2='276.51446218178774'/>
<line class='st6' x1='75.15886989647011' y1='203.5798779441447' x2='79.09767904360454' y2='274.7095669797313'/>
<line class='st6' x1='75.15886989647011' y1='203.5798779441447' x2='79.09767904360454' y2='274.7095669797313'/>
<line class='st6' x1='107.14634421906672' y1='201.89476084228616' x2='111.07392049186913' y2='272.9056232789302'/>
<line class='st6' x1='107.14634421906672' y1='201.89476084228616' x2='111.07392049186913' y2='272.9056232789302'/>
<line class='st6' x1='139.0151284303152' y1='200.21589639840363' x2='142.92224542539563' y2='271.1088960044675'/>
<line class='st6' x1='170.83971427075113' y1='198.53936034812227' x2='174.70017693827847' y2='269.316139983723'/>
<line class='st6' x1='202.77025374930747' y1='196.85724260402537' x2='206.6589793142033' y2='267.51318011039103'/>
<line class='st6' x1='234.76147416259192' y1='195.1719281561239' x2='202.77025374930747' y2='196.85724260402537'/>
<line class='st6' x1='234.76147416259192' y1='195.1719281561239' x2='238.66946269174454' y2='265.7073046468241'/>
<line class='st6' x1='234.76147416259192' y1='195.1719281561239' x2='238.66946269174454' y2='265.7073046468241'/>
<line class='st6' x1='330.6005966168117' y1='190.12307238695703' x2='334.4765867237897' y2='260.3023336414261'/>
<line class='st6' x1='362.0508335059351' y1='188.46625723784962' x2='330.6005966168117' y2='190.12307238695703'/>
<line class='st6' x1='362.0508335059351' y1='188.46625723784962' x2='365.96355006390644' y2='258.52599262690575'/>
<line class='st6' x1='362.0508335059351' y1='188.46625723784962' x2='365.96355006390644' y2='258.52599262690575'/>
<line class='st6' x1='393.94081612824914' y1='186.78627605043621' x2='397.835283836316' y2='256.72794473984027'/>
<line class='st6' x1='393.94081612824914' y1='186.78627605043621' x2='397.835283836316' y2='256.72794473984027'/>
<line class='st6' x1='425.71791325177884' y1='185.1122417309322' x2='429.6524037302413' y2='254.9329779016288'/>
<line class='st6' x1='425.71791325177884' y1='185.1122417309322' x2='429.6524037302413' y2='254.9329779016288'/>
<line class='st6' x1='230.8745220253446' y1='125.016237995609' x2='198.91511417396674' y2='126.81154347511581'/>
<line class='st6' x1='262.4958580787383' y1='123.23992354854583' x2='230.8745220253446' y2='125.016237995609'/>
<line class='st6' x1='262.4958580787383' y1='123.23992354854583' x2='266.2295128252824' y2='193.51417520014934'/>
<line class='st6' x1='294.69562653643845' y1='121.43111591919957' x2='298.56661575136746' y2='191.81063947814295'/>
<line class='st6' x1='326.7074331099427' y1='119.63286696485143' x2='330.6005966168117' y2='190.12307238695703'/>
<line class='st6' x1='390.00361968730914' y1='116.07723191921231' x2='358.1080944126853' y2='117.86894882346691'/>
<line class='st6' x1='390.00361968730914' y1='116.07723191921231' x2='358.1080944126853' y2='117.86894882346691'/>
<line class='st6' x1='226.97079585190187' y1='54.5577928629432' x2='230.8745220253446' y2='125.016237995609'/>
<line class='st6' x1='258.75127616408685' y1='52.76000248893788' x2='262.4958580787383' y2='123.23992354854583'/>
<line class='st6' x1='258.75127616408685' y1='52.76000248893788' x2='262.4958580787383' y2='123.23992354854583'/>
<line class='st6' x1='290.8188280702' y1='50.94597275847398' x2='294.69562653643845' y2='121.43111591919957'/>
<line class='st6' x1='290.8188280702' y1='50.94597275847398' x2='294.69562653643845' y2='121.43111591919957'/>
<line class='st6' x1='322.8139040574812' y1='49.13604291913643' x2='326.7074331099427' y2='119.63286696485143'/>
<line class='st6' x1='322.8139040574812' y1='49.13604291913643' x2='326.7074331099427' y2='119.63286696485143'/>
<line class='st6' x1='354.17041493276724' y1='47.36223607731951' x2='358.1080944126853' y2='117.86894882346691'/>
<line class='st6' x1='354.17041493276724' y1='47.36223607731951' x2='358.1080944126853' y2='117.86894882346691'/>
</svg>
